<svg width="512" height="269" viewBox="0 0 512 269" fill="none" xmlns="http://www.w3.org/2000/svg">
<path fill-rule="evenodd" clip-rule="evenodd" d="M6.60858 219.669L107.32 88.5231L134.872 102.731L200.43 0L241.283 46.9955L256.486 34.9729L315.391 107.104L357.197 59.0154L474.058 219.669L361.472 83.0608L344.369 140.436L360.046 185.792L259.335 51.913L258.245 97.5924L315.391 219.669L208.504 30.6001L239.384 132.786L196.155 33.3327L172.402 99.4535L177.151 56.2828L117.769 212.019L124.893 146.446L100.192 120.219L6.60858 219.669Z" fill="#011C40"/>
<path fill-rule="evenodd" clip-rule="evenodd" d="M507.914 240.181C348.46 115.943 100.272 286.744 0 220.877C110.243 314.217 367.923 156.428 507.914 240.181Z" fill="#011C40"/>
<path fill-rule="evenodd" clip-rule="evenodd" d="M512 249.951C386.894 173.033 200.827 280.074 105.464 255.287C208.798 303.678 401.175 196.457 512 249.951Z" fill="#011C40"/>
</svg>
